<svg class="animated" id="freepik_stories-digital-nomad" xmlns="http://www.w3.org/2000/svg" xmlns:xlink="http://www.w3.org/1999/xlink" viewBox="0 0 500 500" version="1.1" xmlns:svgjs="http://svgjs.com/svgjs"><style>svg#freepik_stories-digital-nomad:not(.animated) .animable {opacity: 0;}svg#freepik_stories-digital-nomad.animated #freepik--Clouds--inject-46 {animation: 1.5s Infinite  linear floating;animation-delay: 0s;}svg#freepik_stories-digital-nomad.animated #freepik--Wind--inject-46 {animation: 1s 1 forwards cubic-bezier(.36,-0.01,.5,1.38) slideDown,1.5s Infinite  linear floating;animation-delay: 0s,1s;}            @keyframes floating {                0% {                    opacity: 1;                    transform: translateY(0px);                }                50% {                    transform: translateY(-10px);                }                100% {                    opacity: 1;                    transform: translateY(0px);                }            }                    @keyframes slideDown {                0% {                    opacity: 0;                    transform: translateY(-30px);                }                100% {                    opacity: 1;                    transform: translateY(0);                }            }        </style><g id="freepik--background-simple--inject-46" class="animable" style="transform-origin: 244.34px 242.685px;"><path d="M346.5,96.48S286.14,62.4,217,88,104,180.6,67,234,35.82,349.11,79.42,384.4s82.94,1.24,150.74,11,84.33,22.61,146.73-6,87.64-117.35,54.66-192S346.5,96.48,346.5,96.48Z" style="fill: rgb(119, 255, 192); transform-origin: 244.34px 242.685px;" id="elivq9ysem4m8" class="animable"></path><g id="elsj5nbcfx8o"><path d="M346.5,96.48S286.14,62.4,217,88,104,180.6,67,234,35.82,349.11,79.42,384.4s82.94,1.24,150.74,11,84.33,22.61,146.73-6,87.64-117.35,54.66-192S346.5,96.48,346.5,96.48Z" style="fill: rgb(255, 255, 255); opacity: 0.8; transform-origin: 244.34px 242.685px;" class="animable"></path></g></g><g id="freepik--Clouds--inject-46" class="animable" style="transform-origin: 251.97px 138.055px;"><path d="M387.21,145.36c-7.42-7.28-13.21-16.83-24-16.83-8,0-10.3,8.77-17.07,11.11-7.1,2.46-12.5-3.9-19-5.24-10.89-2.26-10.56,5.38-15.3,11.91-4.49,6.19-14.37-2.51-19.25,4.81-4.24,6.36-10.66,10.54-14.16,9.86s-11.26-4.91-18.32-.68-9.88,7.77-16.95,7.77-16.23,2.12-16.23,2.12H417.53s-6.35-15.53-16.23-16.95C395.49,152.41,391.12,149.2,387.21,145.36Z" style="fill: rgb(119, 255, 192); transform-origin: 322.23px 149.36px;" id="elxefskbuhqkk" class="animable"></path><path d="M167.92,173.8c-3.78-3.7-6.72-8.56-12.23-8.56-4.07,0-5.24,4.46-8.68,5.65-3.61,1.25-6.35-2-9.65-2.66-5.53-1.15-5.37,2.73-7.78,6.05-2.28,3.15-7.3-1.27-9.79,2.45-2.15,3.23-5.42,5.36-7.19,5s-5.73-2.5-9.32-.34-5,3.95-8.62,3.95a44.92,44.92,0,0,0-8.25,1.07h96.72s-3-7.89-8-8.61A12.84,12.84,0,0,1,167.92,173.8Z" style="fill: rgb(119, 255, 192); transform-origin: 134.77px 175.825px;" id="el851ye0zdv6g" class="animable"></path><path d="M266,94.55c-2.13-2.1-3.8-4.85-6.92-4.85-2.31,0-3,2.52-4.92,3.2s-3.6-1.12-5.47-1.51c-3.14-.65-3,1.55-4.41,3.43s-4.14-.72-5.54,1.39c-1.23,1.83-3.08,3-4.08,2.84s-3.25-1.42-5.28-.2-2.85,2.24-4.89,2.24a25.29,25.29,0,0,0-4.67.61h51.87s1.22-4.47-1.63-4.88A7.3,7.3,0,0,1,266,94.55Z" style="fill: rgb(119, 255, 192); transform-origin: 245.885px 95.7px;" id="elfoxpj3c7ge" class="animable"></path><g id="elaiut7fy3hgi"><path d="M387.21,145.36c-7.42-7.28-13.21-16.83-24-16.83-8,0-10.3,8.77-17.07,11.11-7.1,2.46-12.5-3.9-19-5.24-10.89-2.26-10.56,5.38-15.3,11.91-4.49,6.19-14.37-2.51-19.25,4.81-4.24,6.36-10.66,10.54-14.16,9.86s-11.26-4.91-18.32-.68-9.88,7.77-16.95,7.77-16.23,2.12-16.23,2.12H417.53s-6.35-15.53-16.23-16.95C395.49,152.41,391.12,149.2,387.21,145.36Z" style="fill: rgb(255, 255, 255); opacity: 0.5; transform-origin: 322.23px 149.36px;" class="animable"></path></g><g id="elfdsfcgvyqh"><path d="M167.92,173.8c-3.78-3.7-6.72-8.56-12.23-8.56-4.07,0-5.24,4.46-8.68,5.65-3.61,1.25-6.35-2-9.65-2.66-5.53-1.15-5.37,2.73-7.78,6.05-2.28,3.15-7.3-1.27-9.79,2.45-2.15,3.23-5.42,5.36-7.19,5s-5.73-2.5-9.32-.34-5,3.95-8.62,3.95a44.92,44.92,0,0,0-8.25,1.07h96.72s-3-7.89-8-8.61A12.84,12.84,0,0,1,167.92,173.8Z" style="fill: rgb(255, 255, 255); opacity: 0.5; transform-origin: 134.77px 175.825px;" class="animable"></path></g><g id="elk51or49lcb"><path d="M266,94.55c-2.13-2.1-3.8-4.85-6.92-4.85-2.31,0-3,2.52-4.92,3.2s-3.6-1.12-5.47-1.51c-3.14-.65-3,1.55-4.41,3.43s-4.14-.72-5.54,1.39c-1.23,1.83-3.08,3-4.08,2.84s-3.25-1.42-5.28-.2-2.85,2.24-4.89,2.24a25.29,25.29,0,0,0-4.67.61h51.87s1.22-4.47-1.63-4.88A7.3,7.3,0,0,1,266,94.55Z" style="fill: rgb(255, 255, 255); opacity: 0.5; transform-origin: 245.885px 95.7px;" class="animable"></path></g></g><g id="freepik--Mountains--inject-46" class="animable" style="transform-origin: 249.125px 265.2px;"><g style="clip-path: url(&quot;#freepik--clip-path--inject-46&quot;); transform-origin: 249.125px 265.2px;" id="elbghd9zcucm7" class="animable"><polygon points="89.38 424.44 365.89 424.44 467.98 320.27 469.58 316.63 358.48 176.73 336.26 197.31 247.38 105.96 161.8 224.47 123.12 196.49 28.67 332.65 89.38 424.44" style="fill: rgb(119, 255, 192); transform-origin: 249.125px 265.2px;" id="el4y82porvsiu" class="animable"></polygon><g id="elosqxb1dk3yq"><polygon points="89.38 424.44 365.89 424.44 467.98 320.27 469.58 316.63 358.48 176.73 336.26 197.31 247.38 105.96 161.8 224.47 123.12 196.49 28.67 332.65 89.38 424.44" style="fill: rgb(255, 255, 255); opacity: 0.55; transform-origin: 249.125px 265.2px;" class="animable"></polygon></g><path d="M374.94,208.83l-8.23-4.94L370,222.82l-33.74-25.51,22.22-20.58,19.13,24.09Zm-140.72-56,6.58,9.87,11.52-13.16,26.34,40.32,8.23-29.63,11.52,8.23.79-9.28L247.39,106l-36.62,50.7.41,12.67ZM154.39,236l2.12-15.35-33.39-24.16-26.4,38.06,17.35-15.84,8.23,14,13.16-9.87Z" style="fill: rgb(255, 255, 255); transform-origin: 237.165px 171px;" id="elmj635d4amfd" class="animable"></path><g id="elpukysfhqlhc"><polygon points="127.36 247.85 116.06 238.67 109.7 261.97 137.24 301.51 121.71 304.33 130.89 360.81 166.89 252.09 157.72 251.38 161.8 224.47 123.12 196.49 135.46 222.82 127.36 247.85" style="opacity: 0.1; transform-origin: 138.295px 278.65px;" class="animable"></polygon></g><g id="elb6oi2u1fzv5"><polygon points="281.13 222 291 329.8 272.91 358.07 361.27 424.44 365.89 424.44 467.98 320.27 469.58 316.63 358.48 176.73 376.59 216.24 358.48 207.18 351.08 209.65 336.26 197.31 247.38 105.96 307.46 241.75 281.13 222" style="opacity: 0.1; transform-origin: 358.48px 265.2px;" class="animable"></polygon></g></g></g><g id="freepik--Wind--inject-46" class="animable" style="transform-origin: 283.835px 240.885px;"><path d="M105.25,173.82s6.85-2.74,19.19,0,24,11.66,42.5,14.4,30.16-3.43,32.22-13.71-7.54-11.66-13.71-6.86,0,13,0,13" style="fill: none; stroke: rgb(38, 50, 56); stroke-linecap: round; stroke-linejoin: round; stroke-width: 0.75px; stroke-dasharray: 2; transform-origin: 152.347px 176.933px;" id="el7dyt4qbhjit" class="animable"></path><path d="M163.51,195.07s8.92,3.43,24,0,16.45-20.56,28.1-29.47,21.25.68,21.25,8.91-6.17,9.59-12.34,9.59" style="fill: none; stroke: rgb(38, 50, 56); stroke-linecap: round; stroke-linejoin: round; stroke-width: 0.75px; stroke-dasharray: 2; transform-origin: 200.185px 179.312px;" id="elo1ky0ccsymp" class="animable"></path><path d="M332.87,279.27s8.91-4.11,20.56,6.85,25.36,23.31,43.87,21.94,26.05-17.82,41.81-21.25,23.31,6.17,23.31,12.34-10.28,14.39-15.76,8.22" style="fill: none; stroke: rgb(38, 50, 56); stroke-linecap: round; stroke-linejoin: round; stroke-width: 0.75px; stroke-dasharray: 2; transform-origin: 397.645px 294.036px;" id="elz7ny2689ph" class="animable"></path><path d="M310.93,293s22.62-6.86,34.28,2.74,21.93,24,39.07,24" style="fill: none; stroke: rgb(38, 50, 56); stroke-linecap: round; stroke-linejoin: round; stroke-width: 0.75px; stroke-dasharray: 2; transform-origin: 347.605px 305.183px;" id="elft0q6fnstrn" class="animable"></path></g><g id="freepik--Character--inject-46" class="animable" style="transform-origin: 255.24px 314.031px;"><path d="M267,237s21.71.24,25,4,.24,17.23.24,17.23A71,71,0,0,1,299.81,279c2.12,11.56-2.84,23.13-2.84,23.13s-2.12,10.61-4.24,15.33-17.46,4.49-26.67,2.83-5.42-17.69-4.71-29.49-2.13-44.12-2.13-47.19S261.35,239.38,267,237Z" style="fill: rgb(255, 255, 255); transform-origin: 279.779px 279.185px;" id="el7jg4bz3w9jl" class="animable"></path><g style="clip-path: url(&quot;#freepik--clip-path-2--inject-46&quot;); transform-origin: 279.779px 279.185px;" id="el6ris969dxbp" class="animable"><g id="el6t36w85aryk"><path d="M267,237s21.71.24,25,4,.24,17.23.24,17.23A71,71,0,0,1,299.81,279c2.12,11.56-2.84,23.13-2.84,23.13s-2.12,10.61-4.24,15.33-17.46,4.49-26.67,2.83-5.42-17.69-4.71-29.49-2.13-44.12-2.13-47.19S261.35,239.38,267,237Z" style="opacity: 0.1; transform-origin: 279.779px 279.185px;" class="animable"></path></g></g><path d="M267,237s21.71.24,25,4,.24,17.23.24,17.23A71,71,0,0,1,299.81,279c2.12,11.56-2.84,23.13-2.84,23.13s-2.12,10.61-4.24,15.33-17.46,4.49-26.67,2.83-5.42-17.69-4.71-29.49-2.13-44.12-2.13-47.19S261.35,239.38,267,237Z" style="fill: none; stroke: rgb(38, 50, 56); stroke-linecap: round; stroke-linejoin: round; transform-origin: 279.779px 279.185px;" id="el1e949idg5bc" class="animable"></path><path d="M292.26,258.26s-12.51,4-21.71,5.19l-.24-4.25s19.11-1.65,22.42-4.48Z" style="fill: rgb(38, 50, 56); stroke: rgb(38, 50, 56); stroke-linecap: round; stroke-linejoin: round; transform-origin: 281.52px 259.085px;" id="elyv8r6oyq7w" class="animable"></path><path d="M297,302.15s-14.62,3.3-19.82,2.83l-.47,4s14.4-.24,19.59-2.6Z" style="fill: rgb(38, 50, 56); stroke: rgb(38, 50, 56); stroke-linecap: round; stroke-linejoin: round; transform-origin: 286.855px 305.565px;" id="elz2qwedgui08" class="animable"></path><path d="M237,316.54s-32.56-2.83-40.35,0-9,12.51-9,19.11-5,36.1-5.43,37.28-5.66,11.56-4,13.92,16.52,0,19.11-2.59,9.2-31.62,11.56-39.17a69.6,69.6,0,0,1,5.19-12.51s30.91,12.75,47.2,8.26,10.38-16,1.41-20.76S237,316.54,237,316.54Z" style="fill: rgb(38, 50, 56); stroke: rgb(38, 50, 56); stroke-linecap: round; stroke-linejoin: round; transform-origin: 224.713px 351.552px;" id="elacmzr2nw28" class="animable"></path><path d="M180.18,371.05s-8.5,2.59-12.74,2.59-10.62-1.42-11.57,4.48,4.49,11.57,16.52,12.27,15.34.48,17.93-2.12,2.13-5.9-.47-10.15S182.77,370.81,180.18,371.05Z" style="fill: rgb(119, 255, 192); stroke: rgb(38, 50, 56); stroke-linecap: round; stroke-linejoin: round; transform-origin: 173.905px 380.885px;" id="ela54j3xnanxa" class="animable"></path><path d="M187.26,379.3a11,11,0,0,0,2.41-1.45c-2.62-4.1-6.95-7-9.49-6.8,0,0-8.5,2.59-12.74,2.59h-.66c-1.69.63-3.76,2.06-2.41,5.2C166.49,383.79,178.76,383.08,187.26,379.3Z" style="fill: rgb(255, 255, 255); stroke: rgb(38, 50, 56); stroke-linecap: round; stroke-linejoin: round; transform-origin: 176.802px 376.692px;" id="elsi5m4bljd2" class="animable"></path><path d="M364.93,407.62s-36.81-60.88-39.17-61.35-12.27-.94-12.27-.94-26.9-14.63-31.62-14.63-27.37,13.68-29.73,14.63-15.1,2.36-15.1,4.24-9,17-9,17l-18.41,6.61-1.41,7.08-5.67,31.61h168Z" style="fill: rgb(255, 255, 255); transform-origin: 286.55px 371.285px;" id="el8qknroi0xb" class="animable"></path><g style="clip-path: url(&quot;#freepik--clip-path-3--inject-46&quot;); transform-origin: 257.265px 371.477px;" id="ely9no2subqmp" class="animable"><g id="elb9dg2hkfm4h"><path d="M374.71,412.93l-9.13-7.67-38-60.65-17.17-2.56s-27-13.88-30-13.52-33.25,17.91-34.34,17.91-8.41-.37-10.23,2.19-9.5,15.71-9.5,15.71l-19,6.21-1.83,13.15,15,.73,30.33,30H378Z" style="opacity: 0.21; transform-origin: 291.755px 371.477px;" class="animable"></path></g><ellipse cx="304.51" cy="355.67" rx="8.49" ry="5.26" style="fill: rgb(255, 255, 255); transform-origin: 304.51px 355.67px;" id="el2r7qyoiiihj" class="animable"></ellipse><path d="M330,349.72c0,2.91-3.8,5.27-8.48,5.27s-8.49-2.36-8.49-5.27,3.8-5.26,8.49-5.26S330,346.82,330,349.72Z" style="fill: rgb(255, 255, 255); transform-origin: 321.515px 349.725px;" id="elw115ceq5e8r" class="animable"></path><path d="M297,357.7c0,1.22-1.52,2.21-3.39,2.21s-3.4-1-3.4-2.21,1.52-2.2,3.4-2.2S297,356.48,297,357.7Z" style="fill: rgb(255, 255, 255); transform-origin: 293.605px 357.705px;" id="elj9v85218o2" class="animable"></path><ellipse cx="315.71" cy="356.01" rx="5.77" ry="3.9" style="fill: rgb(255, 255, 255); transform-origin: 315.71px 356.01px;" id="elfb8xs30gwvo" class="animable"></ellipse><path d="M312.32,362.63c0,1.68-2.51,3.05-5.6,3.05s-5.6-1.37-5.6-3.05,2.5-3.06,5.6-3.06S312.32,360.94,312.32,362.63Z" style="fill: rgb(255, 255, 255); transform-origin: 306.72px 362.625px;" id="el1wvcg9nr9zj" class="animable"></path><path d="M289.23,357.7c0,1-1.37,1.87-3.05,1.87s-3.06-.84-3.06-1.87,1.37-1.86,3.06-1.86S289.23,356.67,289.23,357.7Z" style="fill: rgb(255, 255, 255); transform-origin: 286.175px 357.705px;" id="elggngb7m9hph" class="animable"></path><path d="M298.74,348.71c0,.56-1.07,1-2.38,1s-2.37-.45-2.37-1,1.06-1,2.37-1S298.74,348.14,298.74,348.71Z" style="fill: rgb(255, 255, 255); transform-origin: 296.365px 348.71px;" id="elqah38o8nmhg" class="animable"></path><path d="M315.71,349.38c0,1.5-1.67,2.72-3.73,2.72s-3.73-1.22-3.73-2.72,1.67-2.71,3.73-2.71S315.71,347.88,315.71,349.38Z" style="fill: rgb(255, 255, 255); transform-origin: 311.98px 349.385px;" id="eljyo8k1jalzm" class="animable"></path><path d="M308.25,348.2c0,.65-1.37,1.18-3.06,1.18s-3.06-.53-3.06-1.18,1.37-1.19,3.06-1.19S308.25,347.54,308.25,348.2Z" style="fill: rgb(255, 255, 255); transform-origin: 305.19px 348.195px;" id="elqfy575j9nvs" class="animable"></path><path d="M319.11,366.87c0,1.78-2.51,3.22-5.6,3.22s-5.6-1.44-5.6-3.22,2.5-3.23,5.6-3.23S319.11,365.09,319.11,366.87Z" style="fill: rgb(255, 255, 255); transform-origin: 313.51px 366.865px;" id="elz5pyp77ha1" class="animable"></path><ellipse cx="322.5" cy="361.95" rx="7.81" ry="5.09" style="fill: rgb(255, 255, 255); transform-origin: 322.5px 361.95px;" id="elxrxjwkfqu4f" class="animable"></ellipse><path d="M334.73,356.51c0,2.82-3.5,5.1-7.81,5.1s-7.81-2.28-7.81-5.1,3.5-5.09,7.81-5.09S334.73,353.7,334.73,356.51Z" style="fill: rgb(255, 255, 255); transform-origin: 326.92px 356.515px;" id="elighevvq63zl" class="animable"></path><path d="M276,363c0,1.32-1.52,2.38-3.39,2.38s-3.4-1.06-3.4-2.38,1.52-2.37,3.4-2.37S276,361.65,276,363Z" style="fill: rgb(255, 255, 255); transform-origin: 272.605px 363.005px;" id="elhbajhm7hgdd" class="animable"></path><path d="M280.07,371.79c0,2.63-4.26,4.76-9.51,4.76s-9.51-2.13-9.51-4.76,4.26-4.75,9.51-4.75S280.07,369.17,280.07,371.79Z" style="fill: rgb(255, 255, 255); transform-origin: 270.56px 371.795px;" id="elyqt2r3ypbif" class="animable"></path><path d="M284.14,366.53c0,2-2.58,3.56-5.77,3.56s-5.77-1.59-5.77-3.56,2.58-3.57,5.77-3.57S284.14,364.56,284.14,366.53Z" style="fill: rgb(255, 255, 255); transform-origin: 278.37px 366.525px;" id="elzflc9i1phl8" class="animable"></path><path d="M259.19,357.87c0,1.69-2.51,3.06-5.61,3.06s-5.6-1.37-5.6-3.06,2.51-3.05,5.6-3.05S259.19,356.18,259.19,357.87Z" style="fill: rgb(255, 255, 255); transform-origin: 253.585px 357.875px;" id="el9fq28vlrm4" class="animable"></path><path d="M252.91,364c0,1.13-2.13,2-4.76,2s-4.75-.91-4.75-2,2.13-2,4.75-2S252.91,362.86,252.91,364Z" style="fill: rgb(255, 255, 255); transform-origin: 248.155px 364px;" id="elw7j7e9pqy5o" class="animable"></path><ellipse cx="255.11" cy="365.17" rx="3.23" ry="1.87" style="fill: rgb(255, 255, 255); transform-origin: 255.11px 365.17px;" id="el1k0t83hfcyp" class="animable"></ellipse><path d="M240,372.47c0,1.69-3,3.06-6.62,3.06s-6.62-1.37-6.62-3.06,3-3.05,6.62-3.05S240,370.78,240,372.47Z" style="fill: rgb(255, 255, 255); transform-origin: 233.38px 372.475px;" id="el5ddz8juuv8e" class="animable"></path><ellipse cx="241.02" cy="382.83" rx="7.13" ry="4.92" style="fill: rgb(255, 255, 255); transform-origin: 241.02px 382.83px;" id="el0jug8ukwptfa" class="animable"></ellipse><path d="M245.44,373.32c0,1-1.52,1.87-3.4,1.87s-3.39-.84-3.39-1.87,1.52-1.87,3.39-1.87S245.44,372.29,245.44,373.32Z" style="fill: rgb(255, 255, 255); transform-origin: 242.045px 373.32px;" id="el55ryr88mlro" class="animable"></path><ellipse cx="230.67" cy="377.9" rx="3.9" ry="2.04" style="fill: rgb(255, 255, 255); transform-origin: 230.67px 377.9px;" id="elm1ecvoytuw" class="animable"></ellipse><path d="M256.3,381.64c0,1.31-2,2.37-4.41,2.37s-4.42-1.06-4.42-2.37,2-2.38,4.42-2.38S256.3,380.33,256.3,381.64Z" style="fill: rgb(255, 255, 255); transform-origin: 251.885px 381.635px;" id="el42gymobsov4" class="animable"></path><g id="elc3ac8l9fuv9"><polygon points="325.76 346.27 327.16 375.46 282.68 363.81 283.74 397.7 259.91 380.76 257.8 392.41 238.2 396.65 219.11 377.42 210.67 397.18 170.42 403 136.53 413.75 255.92 413.75 254.99 411.74 370.59 411.87 364.93 407.62 325.76 346.27" style="opacity: 0.1; transform-origin: 253.56px 380.01px;" class="animable"></polygon></g></g><path d="M364.93,407.62s-36.81-60.88-39.17-61.35-12.27-.94-12.27-.94-26.9-14.63-31.62-14.63-27.37,13.68-29.73,14.63-15.1,2.36-15.1,4.24-9,17-9,17l-18.41,6.61-1.41,7.08-5.67,31.61h168Z" style="fill: none; stroke: rgb(38, 50, 56); stroke-linecap: round; stroke-linejoin: round; transform-origin: 286.55px 371.285px;" id="ely1y0cefoc5" class="animable"></path><g id="elbk3zfl0smub"><path d="M237,349.57c0,1.46-5.31,10.74-7.76,14.93l19.14-9L287,353.79l13.6-5.7h12.73l2.17-2.66-2-.1s-26.9-14.63-31.62-14.63-27.37,13.68-29.73,14.63S237,347.69,237,349.57Z" style="opacity: 0.1; transform-origin: 272.37px 347.6px;" class="animable"></path></g><polyline points="228.08 366.56 244.12 366.56 267.72 388.27 267.24 403.37 251.67 411.39" style="fill: none; stroke: rgb(38, 50, 56); stroke-linecap: round; stroke-linejoin: round; transform-origin: 247.9px 388.975px;" id="elr5fdt4km2o" class="animable"></polyline><polyline points="252.37 373.53 272.91 358.07 303.58 376 317.27 412.34" style="fill: none; stroke: rgb(38, 50, 56); stroke-linecap: round; stroke-linejoin: round; transform-origin: 284.82px 385.205px;" id="eln811w1agp7s" class="animable"></polyline><polyline points="303.58 376 297.92 394.88 275.27 401.01 267.72 395.82" style="fill: none; stroke: rgb(38, 50, 56); stroke-linecap: round; stroke-linejoin: round; transform-origin: 285.65px 388.505px;" id="el2cvkcw97sbh" class="animable"></polyline><line x1="275.27" y1="401.01" x2="276.21" y2="411.86" style="fill: rgb(255, 255, 255); stroke: rgb(38, 50, 56); stroke-linecap: round; stroke-linejoin: round; transform-origin: 275.74px 406.435px;" id="elc7l74xjq9pw" class="animable"></line><line x1="297.92" y1="394.88" x2="305" y2="411.39" style="fill: rgb(255, 255, 255); stroke: rgb(38, 50, 56); stroke-linecap: round; stroke-linejoin: round; transform-origin: 301.46px 403.135px;" id="elpo46lexzui" class="animable"></line><path d="M279.75,315.83s.47,12-1.89,17.23-5.9,7.78-19.58,8.73-32.09-5.67-32.09-5.67-9.91,16.76-13.92,24.07-11.33,15.57-13.45,18.41-4.49,7.07-7.32,8.49-9.44-7.08-10.62-10.15-2.12-5.19-1.88-6.6,5.42-3.78,5.42-3.78,8-15.1,11.8-21.23,6.61-18.64,9.91-23.13,10.86-7.08,20.29-6.6S251.2,318,255.21,318,279.75,315.83,279.75,315.83Z" style="fill: rgb(38, 50, 56); stroke: rgb(38, 50, 56); stroke-linecap: round; stroke-linejoin: round; transform-origin: 229.375px 351.396px;" id="elqt72xgskoq9" class="animable"></path><path d="M188,360.34c3.86-6.87,10.37-18.69,12.24-23.55,2.71-7.05,5.7-13,5.7-13" style="fill: none; stroke: rgb(255, 255, 255); stroke-linecap: round; stroke-linejoin: round; stroke-width: 0.75px; transform-origin: 196.97px 342.065px;" id="el6o2qr8wg7mo" class="animable"></path><path d="M185.05,365.52s.46-.79,1.2-2.1" style="fill: none; stroke: rgb(255, 255, 255); stroke-linecap: round; stroke-linejoin: round; stroke-width: 0.75px; transform-origin: 185.65px 364.47px;" id="eljz9sekzpov" class="animable"></path><path d="M243,258.81s-4.56,5.82-5.82,10.54-5.82,21.39-6.76,22.65-3.94,5.51-6.77,7.55-12.2,5.78-15.66,8.77-1.8,4.44-3.21,6.8,5,3.78,6.44,3.78,11.8-.63,17.62-2.67,14.95-13.53,15.26-14.16,2-11,2.52-23S249,258.81,243,258.81Z" style="fill: rgb(119, 255, 192); transform-origin: 225.941px 288.855px;" id="elmjr9kibw078" class="animable"></path><g style="clip-path: url(&quot;#freepik--clip-path-4--inject-46&quot;); transform-origin: 229.895px 292.585px;" id="el90jjh9m8s4o" class="animable"><g id="elutjm3l2rg9"><path d="M247.27,267.67c-.1-.83-.16-1.31-.16-1.31l-5.85,4.56a17.34,17.34,0,0,0-2.37,10c.3,6.19,1.77,10.33.89,10.33s-3.84-3.55-3.84,0,2.07,6.19,2.66,8.26-7.38-6.79-6.49-3.84,4.72,6.5,4.42,8.27-5-6.2-6.79-4.13-.29,5.6-2.06,6.19c-1.48.5-13.87,9.64-15.16,12.81,3.27-.18,11.43-.9,16.34-2.62,5.82-2.05,14.95-13.53,15.26-14.16s2-11,2.52-23C246.81,274.73,247.17,270.84,247.27,267.67Z" style="opacity: 0.2; transform-origin: 229.895px 292.585px;" class="animable"></path></g></g><path d="M243,258.81s-4.56,5.82-5.82,10.54-5.82,21.39-6.76,22.65-3.94,5.51-6.77,7.55-12.2,5.78-15.66,8.77-1.8,4.44-3.21,6.8,5,3.78,6.44,3.78,11.8-.63,17.62-2.67,14.95-13.53,15.26-14.16,2-11,2.52-23S249,258.81,243,258.81Z" style="fill: none; stroke: rgb(38, 50, 56); stroke-linecap: round; stroke-linejoin: round; transform-origin: 225.941px 288.855px;" id="ell1iba78t73" class="animable"></path><path d="M241.16,301.55s-8.4-9.49-8.67-7.32,5.69,7.32,5.69,9.76-8.67-7.05-9.49-4.34a3.15,3.15,0,0,0,1.9,3.8" style="fill: none; stroke: rgb(38, 50, 56); stroke-linecap: round; stroke-linejoin: round; transform-origin: 234.865px 299.151px;" id="elgbp4p8652m8" class="animable"></path><path d="M212.87,308.83s-4.86-1.79-6.91,0-9.73,8.19-6.65,10,8.58,1.85,10.49.26a16.29,16.29,0,0,1,3.59-2.3s-.77,2.81,1.79,1.28,4.86-6.66,3.32-7.94S212.87,308.83,212.87,308.83Z" style="fill: rgb(38, 50, 56); stroke: rgb(38, 50, 56); stroke-linecap: round; stroke-linejoin: round; transform-origin: 208.794px 314.136px;" id="elu50du1m9z5k" class="animable"></path><path d="M241.14,258a157.38,157.38,0,0,0-.93,18.57c.27,8,1.73,23.76.14,28.8s-1.46,9.55,1.59,11.55,17,4.24,25.74,3.05,13.94-2.66,14.47-6,.93-32.12-.67-42.6-4.77-20.3-8-23.49-6.5-2-14.6,1.2S243.4,254.81,241.14,258Z" style="fill: rgb(119, 255, 192); stroke: rgb(38, 50, 56); stroke-linecap: round; stroke-linejoin: round; transform-origin: 260.981px 283.152px;" id="el7k53ik2etur" class="animable"></path><path d="M258,273.12s-7.55,4.72-18.17,0c0,0-.47,5,.24,5a33.46,33.46,0,0,0,10.15,1.41c6.84,0,9.43-1.65,9.43-1.65Z" style="fill: rgb(38, 50, 56); stroke: rgb(38, 50, 56); stroke-linecap: round; stroke-linejoin: round; transform-origin: 249.664px 276.327px;" id="el9d97pabncv" class="animable"></path><path d="M257.33,255.9s-3.06,7.55-2.36,14.39,3.07,12.51,9.91,12.51,12.51-14.87,12.75-23.13-2.6-11.79-9.21-11.79S257.33,255.9,257.33,255.9Z" style="fill: rgb(38, 50, 56); stroke: rgb(38, 50, 56); stroke-linecap: round; stroke-linejoin: round; transform-origin: 266.255px 265.34px;" id="el2jwe0f4sefx" class="animable"></path><path d="M239.82,256.4s4,8,5,9.56,1.19.93,2.25.4,20.44-17.25,22.17-17.92,5.17.93,5.44-.79-7.17-12.48-9.29-14.2-6.37,4.77-7.43,5.3-1.46,0-3.32.4S243.27,251.49,239.82,256.4Z" style="fill: rgb(119, 255, 192); transform-origin: 257.254px 250.053px;" id="el0ar5zgfjo1rl" class="animable"></path><g style="clip-path: url(&quot;#freepik--clip-path-5--inject-46&quot;); transform-origin: 260.529px 247.334px;" id="el43ex38slwv3" class="animable"><g id="el4bv8u60fr9"><path d="M265.43,233.45c-2.13-1.73-6.37,4.77-7.43,5.3s-1.46,0-3.32.4c-1.08.23-4.78,4.39-8.36,8.79l2,11.25s9.19-4.25,11.85-5.6a86.71,86.71,0,0,0-7.07,7.92c6.17-5.16,15-12.63,16.19-13.07,1.72-.66,5.17.93,5.44-.79S267.55,235.17,265.43,233.45Z" style="opacity: 0.2; transform-origin: 260.529px 247.334px;" class="animable"></path></g></g><path d="M239.82,256.4s4,8,5,9.56,1.19.93,2.25.4,20.44-17.25,22.17-17.92,5.17.93,5.44-.79-7.17-12.48-9.29-14.2-6.37,4.77-7.43,5.3-1.46,0-3.32.4S243.27,251.49,239.82,256.4Z" style="fill: none; stroke: rgb(38, 50, 56); stroke-linecap: round; stroke-linejoin: round; transform-origin: 257.254px 250.053px;" id="el9mnkkk5mf7v" class="animable"></path><path d="M254.41,249s12.77-8.95,8.44-8.95-4.88,5.42-4.88,5.42" style="fill: none; stroke: rgb(38, 50, 56); stroke-linecap: round; stroke-linejoin: round; transform-origin: 259.078px 244.525px;" id="elk7u99sceyg9" class="animable"></path><path d="M243.93,255.61l4.38,3.58a110.65,110.65,0,0,0,6.1-10.22l-2.25-7.43Z" style="fill: rgb(255, 255, 255); transform-origin: 249.17px 250.365px;" id="elyh5bo4c8vp" class="animable"></path><g style="clip-path: url(&quot;#freepik--clip-path-6--inject-46&quot;); transform-origin: 249.17px 250.365px;" id="el2nnswtwvatn" class="animable"><path d="M243.93,255.61l4.38,3.58a110.65,110.65,0,0,0,6.1-10.22l-2.25-7.43Z" style="fill: rgb(119, 255, 192); transform-origin: 249.17px 250.365px;" id="elutq9dcf4swa" class="animable"></path><g id="elpnp23buqoeg"><path d="M243.93,255.61l4.38,3.58a110.65,110.65,0,0,0,6.1-10.22l-2.25-7.43Z" style="fill: rgb(255, 255, 255); opacity: 0.5; transform-origin: 249.17px 250.365px;" class="animable"></path></g></g><path d="M243.93,255.61l4.38,3.58a110.65,110.65,0,0,0,6.1-10.22l-2.25-7.43Z" style="fill: none; stroke: rgb(38, 50, 56); stroke-linecap: round; stroke-linejoin: round; transform-origin: 249.17px 250.365px;" id="el4na3kthyj04" class="animable"></path><path d="M230,218.8a16.35,16.35,0,0,0-3.49,10c0,6.64,2.92,16.59,4.91,20.7s7,9.82,9.42,10,8.36-9,9.55-11.28a14,14,0,0,0,1.46-3.85s3.45-1.59,3.05-8-2.92-15.93-2.25-17.52,3.71-4.64,3.05-5.71-2-.26-3.45.53-7-.39-11.15,0a21.17,21.17,0,0,0-7.88,2.4A11.07,11.07,0,0,0,230,218.8Z" style="fill: rgb(255, 255, 255); transform-origin: 241.152px 236.064px;" id="el1cv9yg9z53o" class="animable"></path><g style="clip-path: url(&quot;#freepik--clip-path-7--inject-46&quot;); transform-origin: 248.502px 235.996px;" id="elu91notceme" class="animable"><path d="M241.17,259.41c2.55-.52,8.11-9.06,9.26-11.23a14,14,0,0,0,1.46-3.85s3.45-1.59,3.05-8-2.92-15.93-2.25-17.52,3.71-4.64,3.05-5.71a1.08,1.08,0,0,0-1.27-.46,56.58,56.58,0,0,0-9.85,9.27c-4.08,5.27-.24,12.7-.24,12.7s2.63,6.71,2.15,11.5C246.14,250,243.54,255.83,241.17,259.41Z" style="fill: rgb(119, 255, 192); transform-origin: 248.502px 235.996px;" id="eldas9ycxwm2g" class="animable"></path><g id="eltuhwhvcj7dc"><path d="M241.17,259.41c2.55-.52,8.11-9.06,9.26-11.23a14,14,0,0,0,1.46-3.85s3.45-1.59,3.05-8-2.92-15.93-2.25-17.52,3.71-4.64,3.05-5.71a1.08,1.08,0,0,0-1.27-.46,56.58,56.58,0,0,0-9.85,9.27c-4.08,5.27-.24,12.7-.24,12.7s2.63,6.71,2.15,11.5C246.14,250,243.54,255.83,241.17,259.41Z" style="fill: rgb(255, 255, 255); opacity: 0.5; transform-origin: 248.502px 235.996px;" class="animable"></path></g></g><path d="M230,218.8a16.35,16.35,0,0,0-3.49,10c0,6.64,2.92,16.59,4.91,20.7s7,9.82,9.42,10,8.36-9,9.55-11.28a14,14,0,0,0,1.46-3.85s3.45-1.59,3.05-8-2.92-15.93-2.25-17.52,3.71-4.64,3.05-5.71-2-.26-3.45.53-7-.39-11.15,0a21.17,21.17,0,0,0-7.88,2.4A11.07,11.07,0,0,0,230,218.8Z" style="fill: none; stroke: rgb(38, 50, 56); stroke-linecap: round; stroke-linejoin: round; transform-origin: 241.152px 236.064px;" id="eltjo6o2iampb" class="animable"></path><path d="M233.84,239.82a7.1,7.1,0,0,1-1.19,3.45c-1.06,1.32-.53,2.25,1.06,2.12a4.28,4.28,0,0,0,2.52-1.06" style="fill: none; stroke: rgb(38, 50, 56); stroke-linecap: round; stroke-linejoin: round; transform-origin: 234.164px 242.611px;" id="el4fpcv4d6ch2" class="animable"></path><path d="M233.58,234.24s-10.49,1.64-11.42,3.24,5.57,7.57,7.57,6.5,3.45-5.09,5-5,4.91,3.32,7.83,2.79,6.37-7.3,6.11-8.63S236.9,233.45,233.58,234.24Z" style="fill: rgb(38, 50, 56); stroke: rgb(38, 50, 56); stroke-linecap: round; stroke-linejoin: round; transform-origin: 235.377px 238.372px;" id="elaof37z0rjrb" class="animable"></path><path d="M239.61,236.55c-5.29-2.47-7.06,0-10.94,3.18a12.81,12.81,0,0,1-3.76,2.05c1.75,1.53,3.83,2.73,4.82,2.2,2-1.06,3.45-5.09,5-5s4.91,3.32,7.83,2.79c1.6-.29,3.35-2.45,4.57-4.56A13.47,13.47,0,0,1,239.61,236.55Z" style="fill: rgb(119, 255, 192); stroke: rgb(38, 50, 56); stroke-linecap: round; stroke-linejoin: round; transform-origin: 236.02px 239.826px;" id="ela16grewt3a7" class="animable"></path><path d="M235,248.18a6.61,6.61,0,0,0,7.16-2.66" style="fill: none; stroke: rgb(38, 50, 56); stroke-linecap: round; stroke-linejoin: round; transform-origin: 238.58px 246.961px;" id="el42zfv5c8l7a" class="animable"></path><path d="M248.71,231.59s1.32,6.37.93,7.83,1.06.4,1.59-2.12a20.18,20.18,0,0,0,.53-3.46A7.28,7.28,0,0,0,248.71,231.59Z" style="fill: rgb(119, 255, 192); stroke: rgb(38, 50, 56); stroke-linecap: round; stroke-linejoin: round; transform-origin: 250.235px 235.836px;" id="elke1o4upxs8" class="animable"></path><path d="M255.74,213.14c-.66-1.06-2-.26-3.45.53s-7-.39-11.15,0a21.17,21.17,0,0,0-7.88,2.4A11.07,11.07,0,0,0,230,218.8a16.35,16.35,0,0,0-3.49,10,34.29,34.29,0,0,0,.35,4.56c3.78-2.73,14.17-7.94,28.06,3.7,0-.23,0-.45,0-.69-.39-6.37-2.92-15.93-2.25-17.52S256.4,214.21,255.74,213.14Z" style="fill: rgb(38, 50, 56); transform-origin: 241.171px 224.845px;" id="el022uqzzf575n" class="animable"></path><g style="clip-path: url(&quot;#freepik--clip-path-8--inject-46&quot;); transform-origin: 240.705px 224.795px;" id="elfj4nw7hshmn" class="animable"><path d="M239.12,215.76c3.74-.68,5.08-.21,5.55.13a1,1,0,0,1,.4.67c.31,2.49,2.75,2.49,5.57,2.49a2.89,2.89,0,0,1,1.94.8,2.63,2.63,0,0,1,.11-1c0-.06.06-.12.09-.19a3.8,3.8,0,0,0-2.14-.67c-2.92,0-4.34-.07-4.52-1.56a2,2,0,0,0-.82-1.39c-1.09-.8-3.18-.91-6.37-.33-1.35.25-1.72.12-2.17-.11-.52.16-1,.34-1.52.54a4.6,4.6,0,0,1,1,.37A3.88,3.88,0,0,0,239.12,215.76Z" style="fill: rgb(119, 255, 192); transform-origin: 244.01px 217.097px;" id="el6u0sow19i9h" class="animable"></path><path d="M253.65,232.19c-1.63-3.65-2.62-3.78-4.48-3.2l-.44.13c-1.64.47-3.37.74-5-1.56s-4.39-2.49-7.54-.39c-1.6,1.07-2.09.89-3.54.38-.38-.14-.81-.29-1.32-.45-1.74-.52-3.58.9-4.79,2.14,0,.48,0,1,.07,1.5,1.06-1.27,3-3.06,4.41-2.62.5.15.91.29,1.28.42a4,4,0,0,0,4.47-.49c1.87-1.24,4.45-2.24,6.1.12,1.91,2.73,4.17,2.53,6.13,2l.46-.14c1.3-.4,1.78-.55,3.21,2.63a7.69,7.69,0,0,0,2.2,3c0-.54-.1-1.09-.17-1.67A8.72,8.72,0,0,1,253.65,232.19Z" style="fill: rgb(119, 255, 192); transform-origin: 240.705px 230.684px;" id="eldqjhj8povt6" class="animable"></path><path d="M251.11,213.93a10.9,10.9,0,0,1-1.29,0,6.2,6.2,0,0,0,4.32,2.66c.23-.32.47-.65.68-1A6.06,6.06,0,0,1,251.11,213.93Z" style="fill: rgb(119, 255, 192); transform-origin: 252.32px 215.26px;" id="eld9okurflsu6" class="animable"></path><path d="M230.69,222.08a1.94,1.94,0,0,1,1.36.4c.65.45,1.22.7,3.1.08.78-.26,1.51-.58,2.21-.88,2.22-1,3.53-1.46,4.55-.29,1.84,2.1,3,2.71,5.2,2.71l1.15,0c1.93-.08,3.22-.06,3.67,1a6.26,6.26,0,0,0,1.74,2.2c-.11-.64-.22-1.26-.33-1.87a3.78,3.78,0,0,1-.44-.75c-.77-1.78-2.85-1.69-4.68-1.61l-1.11,0c-1.76,0-2.65-.34-4.4-2.34-1.59-1.81-3.62-.93-5.77,0-.68.29-1.39.6-2.12.84-1.52.51-1.79.32-2.17.06a3,3,0,0,0-2-.59,4.81,4.81,0,0,0-2.69,1.15,16,16,0,0,0-.77,2.1C228.29,223.19,229.65,222.08,230.69,222.08Z" style="fill: rgb(119, 255, 192); transform-origin: 240.43px 223.489px;" id="elw9k823viiua" class="animable"></path></g><path d="M255.74,213.14c-.66-1.06-2-.26-3.45.53s-7-.39-11.15,0a21.17,21.17,0,0,0-7.88,2.4A11.07,11.07,0,0,0,230,218.8a16.35,16.35,0,0,0-3.49,10,34.29,34.29,0,0,0,.35,4.56c3.78-2.73,14.17-7.94,28.06,3.7,0-.23,0-.45,0-.69-.39-6.37-2.92-15.93-2.25-17.52S256.4,214.21,255.74,213.14Z" style="fill: none; stroke: rgb(38, 50, 56); stroke-linecap: round; stroke-linejoin: round; transform-origin: 241.171px 224.845px;" id="elnwmf7m6ye4j" class="animable"></path><path d="M230,307.57a38.3,38.3,0,0,1-7.23-1.26c-3-.94-4.56-1.57-6.29-.31s-6,8-6.3,9.44,1,2.52,1.58,2,6-4.24,6-4.24a11,11,0,0,0,4.88,2.36,6,6,0,0,0,4.25-1.11l3,.48Z" style="fill: rgb(38, 50, 56); stroke: rgb(38, 50, 56); stroke-linecap: round; stroke-linejoin: round; transform-origin: 220.068px 311.433px;" id="el96gxgv8i3g" class="animable"></path><path d="M274.79,253.15s-3.93-3.94-11,1.88-5,17.31-4.87,22,1.88,16.67,1.88,19.19v4.09s-9.28,4.09-12.89,5.19-10.7,1.26-12.27,1.57-5.51-1.41-6.45.32-2.83,8.33-.32,9.43,15.1,1.26,23.91,1.26,22.34-2.2,25.49-4.09,2.51-12.74,2.51-20.13-.16-23.75-1.41-30.52S276.05,254.41,274.79,253.15Z" style="fill: rgb(119, 255, 192); transform-origin: 254.227px 284.963px;" id="elggzmb9604fl" class="animable"></path><g style="clip-path: url(&quot;#freepik--clip-path-9--inject-46&quot;); transform-origin: 256.857px 284.984px;" id="elqbm19hf89m9" class="animable"><g id="elbj1v7ulefka"><path d="M279.36,263.37c-1.26-6.76-3.31-9-4.57-10.22,0,0-2.15-2.14-6.12-.91l-.26.38s6.2.89,5,3.54-11.51,10.92-11.51,10.92,5.9-3.54,11.21-3.83,2.07,3.24-.88,3.83,8.26,1.48,3.83,2.66-8.85-.59-6.79,2.36,10.34,3.84,8,6.79-10,5.9-8.26,10.33,9.74,3.54,9.74,6.2-2.07,3.84-5.9,4.43,6.86,1.11,4.31,5.13-5.49-1.89-10.22,1.06-7.08,8.27-13.87,8.86-12.1,0-17.41,1.77c-1,.32-1.92.62-2.83.88,5.07.48,13.51.56,20,.56,8.81,0,22.34-2.2,25.49-4.09s2.51-12.74,2.51-20.13S280.61,270.14,279.36,263.37Z" style="opacity: 0.2; transform-origin: 256.857px 284.984px;" class="animable"></path></g></g><path d="M274.79,253.15s-3.93-3.94-11,1.88-5,17.31-4.87,22,1.88,16.67,1.88,19.19v4.09s-9.28,4.09-12.89,5.19-10.7,1.26-12.27,1.57-5.51-1.41-6.45.32-2.83,8.33-.32,9.43,15.1,1.26,23.91,1.26,22.34-2.2,25.49-4.09,2.51-12.74,2.51-20.13-.16-23.75-1.41-30.52S276.05,254.41,274.79,253.15Z" style="fill: none; stroke: rgb(38, 50, 56); stroke-linecap: round; stroke-linejoin: round; transform-origin: 254.227px 284.963px;" id="el15nr9tiqmjo" class="animable"></path><path d="M262.85,300.74s7.32.27,11.38,5.15" style="fill: none; stroke: rgb(38, 50, 56); stroke-linecap: round; stroke-linejoin: round; transform-origin: 268.54px 303.315px;" id="el46imlnrhe4g" class="animable"></path><path d="M263.12,299.65s7.05-2.17,10.84-.54,7.32-1.09,1.09-3.25-11.23.39-12.74,2.44" style="fill: none; stroke: rgb(38, 50, 56); stroke-linecap: round; stroke-linejoin: round; transform-origin: 270.38px 297.344px;" id="elxybikpa9wtm" class="animable"></path><path d="M275.05,260.35s-2.17-2.44-8.95,3-5.15,8.67-.81,6.5,11.92-4.87,12.47-1.62-7.59,1.62-6,3.52,5.42,1.9,5.42,1.9" style="fill: none; stroke: rgb(38, 50, 56); stroke-linecap: round; stroke-linejoin: round; transform-origin: 269.653px 266.727px;" id="eld83igqnfk2o" class="animable"></path><rect x="185.92" y="319.06" width="48.13" height="2.2" style="fill: rgb(255, 255, 255); stroke: rgb(38, 50, 56); stroke-linecap: round; stroke-linejoin: round; transform-origin: 209.985px 320.16px;" id="elonh11lwuzwl" class="animable"></rect><rect x="185.92" y="319.06" width="26.27" height="2.2" style="fill: rgb(255, 255, 255); stroke: rgb(38, 50, 56); stroke-linecap: round; stroke-linejoin: round; transform-origin: 199.055px 320.16px;" id="elv8szzwg1bto" class="animable"></rect><polygon points="185.92 319.06 175.22 295.3 204.01 295.3 212.19 319.06 185.92 319.06" style="fill: rgb(255, 255, 255); stroke: rgb(38, 50, 56); stroke-linecap: round; stroke-linejoin: round; transform-origin: 193.705px 307.18px;" id="el5t9nk8jt98" class="animable"></polygon><path d="M251.67,411.39s-29.73-34-32.56-34-69.37,12.74-71.73,16-10.85,20.29-10.85,20.29H255.92Z" style="fill: rgb(255, 255, 255); transform-origin: 196.225px 395.535px;" id="elp71u45tiick" class="animable"></path><g style="clip-path: url(&quot;#freepik--clip-path-10--inject-46&quot;); transform-origin: 196.42px 395.084px;" id="el4ocrmv1g0qc" class="animable"><g id="el7vlqonu9ns5"><path d="M221.26,375.3,254.14,410l6.22,5.48-127.88-.73L147.1,391l69.41-16.08S218,374.2,221.26,375.3Z" style="opacity: 0.21; transform-origin: 196.42px 395.084px;" class="animable"></path></g><path d="M219,383.49c0,1.23-2,2.22-4.51,2.22s-4.5-1-4.5-2.22,2-2.22,4.5-2.22S219,382.26,219,383.49Z" style="fill: rgb(255, 255, 255); transform-origin: 214.495px 383.49px;" id="elhera85x2si" class="animable"></path><path d="M192.13,397.93c0,3.19-3.49,5.78-7.8,5.78s-7.81-2.59-7.81-5.78,3.49-5.77,7.81-5.77S192.13,394.75,192.13,397.93Z" style="fill: rgb(255, 255, 255); transform-origin: 184.325px 397.935px;" id="elpzq4kmpqnbm" class="animable"></path><path d="M216.92,389.45c0,3.18-3.5,5.77-7.81,5.77s-7.81-2.59-7.81-5.77,3.5-5.78,7.81-5.78S216.92,386.26,216.92,389.45Z" style="fill: rgb(255, 255, 255); transform-origin: 209.11px 389.445px;" id="elqobcf2u9tx" class="animable"></path><path d="M198.92,392.5c0,1.69-1.9,3.06-4.24,3.06s-4.24-1.37-4.24-3.06,1.9-3.05,4.24-3.05S198.92,390.81,198.92,392.5Z" style="fill: rgb(255, 255, 255); transform-origin: 194.68px 392.505px;" id="el2mfonomzm2" class="animable"></path><ellipse cx="199.6" cy="386.39" rx="4.24" ry="3.06" style="fill: rgb(255, 255, 255); transform-origin: 199.6px 386.39px;" id="elw35ekol6rlm" class="animable"></ellipse><ellipse cx="193.32" cy="388.18" rx="4.24" ry="3.06" style="fill: rgb(255, 255, 255); transform-origin: 193.32px 388.18px;" id="eltlk06jpm35" class="animable"></ellipse><path d="M159.37,399.29c0,1.69-1.9,3.06-4.24,3.06s-4.25-1.37-4.25-3.06,1.9-3.05,4.25-3.05S159.37,397.6,159.37,399.29Z" style="fill: rgb(255, 255, 255); transform-origin: 155.125px 399.295px;" id="ela0v6ryxif7f" class="animable"></path><path d="M169.73,394.2c0,1.31-1.83,2.38-4.08,2.38s-4.07-1.07-4.07-2.38,1.82-2.38,4.07-2.38S169.73,392.89,169.73,394.2Z" style="fill: rgb(255, 255, 255); transform-origin: 165.655px 394.2px;" id="elp2s8nmqvyx" class="animable"></path><g id="el93rhn5pfzwe"><path d="M238.45,396.59l-.25.06-19.09-19.23-8.44,19.76L170.42,403l-33.89,10.75H255.92l-4.25-2.36S245.46,404.3,238.45,396.59Z" style="opacity: 0.1; transform-origin: 196.225px 395.585px;" class="animable"></path></g></g><path d="M251.67,411.39s-29.73-34-32.56-34-69.37,12.74-71.73,16-10.85,20.29-10.85,20.29H255.92Z" style="fill: none; stroke: rgb(38, 50, 56); stroke-linecap: round; stroke-linejoin: round; transform-origin: 196.225px 395.535px;" id="el5q2dkzs1259" class="animable"></path></g><defs>     <filter id="active" height="200%">         <feMorphology in="SourceAlpha" result="DILATED" operator="dilate" radius="2"></feMorphology>                <feFlood flood-color="#32DFEC" flood-opacity="1" result="PINK"></feFlood>        <feComposite in="PINK" in2="DILATED" operator="in" result="OUTLINE"></feComposite>        <feMerge>            <feMergeNode in="OUTLINE"></feMergeNode>            <feMergeNode in="SourceGraphic"></feMergeNode>        </feMerge>    </filter>    <filter id="hover" height="200%">        <feMorphology in="SourceAlpha" result="DILATED" operator="dilate" radius="2"></feMorphology>                <feFlood flood-color="#ff0000" flood-opacity="0.5" result="PINK"></feFlood>        <feComposite in="PINK" in2="DILATED" operator="in" result="OUTLINE"></feComposite>        <feMerge>            <feMergeNode in="OUTLINE"></feMergeNode>            <feMergeNode in="SourceGraphic"></feMergeNode>        </feMerge>            <feColorMatrix type="matrix" values="0   0   0   0   0                0   1   0   0   0                0   0   0   0   0                0   0   0   1   0 "></feColorMatrix>    </filter></defs><defs><clipPath id="freepik--clip-path--inject-46"><path d="M346.5,96.48S286.14,62.4,217,88,104,180.6,67,234,35.82,349.11,79.42,384.4s82.94,1.24,150.74,11,84.33,22.61,146.73-6,87.64-117.35,54.66-192S346.5,96.48,346.5,96.48Z" style="fill:none"></path></clipPath><clipPath id="freepik--clip-path-2--inject-46"><path d="M267,237s21.71.24,25,4,.24,17.23.24,17.23A71,71,0,0,1,299.81,279c2.12,11.56-2.84,23.13-2.84,23.13s-2.12,10.61-4.24,15.33-17.46,4.49-26.67,2.83-5.42-17.69-4.71-29.49-2.13-44.12-2.13-47.19S261.35,239.38,267,237Z" style="fill:#fff;stroke:#263238;stroke-linecap:round;stroke-linejoin:round"></path></clipPath><clipPath id="freepik--clip-path-3--inject-46"><path d="M364.93,407.62s-36.81-60.88-39.17-61.35-12.27-.94-12.27-.94-26.9-14.63-31.62-14.63-27.37,13.68-29.73,14.63-15.1,2.36-15.1,4.24-9,17-9,17l-18.41,6.61-1.41,7.08-5.67,31.61h168Z" style="fill:#fff;stroke:#263238;stroke-linecap:round;stroke-linejoin:round"></path></clipPath><clipPath id="freepik--clip-path-4--inject-46"><path d="M243,258.81s-4.56,5.82-5.82,10.54-5.82,21.39-6.76,22.65-3.94,5.51-6.77,7.55-12.2,5.78-15.66,8.77-1.8,4.44-3.21,6.8,5,3.78,6.44,3.78,11.8-.63,17.62-2.67,14.95-13.53,15.26-14.16,2-11,2.52-23S249,258.81,243,258.81Z" style="fill:#77FFC0;stroke:#263238;stroke-linecap:round;stroke-linejoin:round"></path></clipPath><clipPath id="freepik--clip-path-5--inject-46"><path d="M239.82,256.4s4,8,5,9.56,1.19.93,2.25.4,20.44-17.25,22.17-17.92,5.17.93,5.44-.79-7.17-12.48-9.29-14.2-6.37,4.77-7.43,5.3-1.46,0-3.32.4S243.27,251.49,239.82,256.4Z" style="fill:#77FFC0;stroke:#263238;stroke-linecap:round;stroke-linejoin:round"></path></clipPath><clipPath id="freepik--clip-path-6--inject-46"><path d="M243.93,255.61l4.38,3.58a110.65,110.65,0,0,0,6.1-10.22l-2.25-7.43Z" style="fill:#fff;stroke:#263238;stroke-linecap:round;stroke-linejoin:round"></path></clipPath><clipPath id="freepik--clip-path-7--inject-46"><path d="M230,218.8a16.35,16.35,0,0,0-3.49,10c0,6.64,2.92,16.59,4.91,20.7s7,9.82,9.42,10,8.36-9,9.55-11.28a14,14,0,0,0,1.46-3.85s3.45-1.59,3.05-8-2.92-15.93-2.25-17.52,3.71-4.64,3.05-5.71-2-.26-3.45.53-7-.39-11.15,0a21.17,21.17,0,0,0-7.88,2.4A11.07,11.07,0,0,0,230,218.8Z" style="fill:#fff;stroke:#263238;stroke-linecap:round;stroke-linejoin:round"></path></clipPath><clipPath id="freepik--clip-path-8--inject-46"><path d="M255.74,213.14c-.66-1.06-2-.26-3.45.53s-7-.39-11.15,0a21.17,21.17,0,0,0-7.88,2.4A11.07,11.07,0,0,0,230,218.8a16.35,16.35,0,0,0-3.49,10,34.29,34.29,0,0,0,.35,4.56c3.78-2.73,14.17-7.94,28.06,3.7,0-.23,0-.45,0-.69-.39-6.37-2.92-15.93-2.25-17.52S256.4,214.21,255.74,213.14Z" style="fill:#263238;stroke:#263238;stroke-linecap:round;stroke-linejoin:round"></path></clipPath><clipPath id="freepik--clip-path-9--inject-46"><path d="M274.79,253.15s-3.93-3.94-11,1.88-5,17.31-4.87,22,1.88,16.67,1.88,19.19v4.09s-9.28,4.09-12.89,5.19-10.7,1.26-12.27,1.57-5.51-1.41-6.45.32-2.83,8.33-.32,9.43,15.1,1.26,23.91,1.26,22.34-2.2,25.49-4.09,2.51-12.74,2.51-20.13-.16-23.75-1.41-30.52S276.05,254.41,274.79,253.15Z" style="fill:#77FFC0;stroke:#263238;stroke-linecap:round;stroke-linejoin:round"></path></clipPath><clipPath id="freepik--clip-path-10--inject-46"><path d="M251.67,411.39s-29.73-34-32.56-34-69.37,12.74-71.73,16-10.85,20.29-10.85,20.29H255.92Z" style="fill:#fff;stroke:#263238;stroke-linecap:round;stroke-linejoin:round"></path></clipPath></defs></svg>